<svg xmlns="http://www.w3.org/2000/svg" width="126" height="126" viewBox="0 0 126 126">
  <defs>
    <style>
      .cls-1 {
        fill: #333;
        opacity: 0.696;
      }

      .cls-2 {
        fill: #fff;
        stroke: #fff;
        stroke-width: 2px;
      }
    </style>
  </defs>
  <g id="btn_icon_off" transform="translate(-4327 -5824)">
    <circle id="椭圆_159" data-name="椭圆 159" class="cls-1" cx="63" cy="63" r="63" transform="translate(4327 5824)"/>
    <path id="replay" class="cls-2" d="M28.282,0A28.282,28.282,0,1,0,56.564,28.282a2.63,2.63,0,0,0-5.26,0,23.256,23.256,0,0,1-23.05,23.05A23.256,23.256,0,0,1,5.2,28.282a23.256,23.256,0,0,1,23.05-23.05c4.186,0,8.909,1.046,12.048,3.677v.537l-2.63,3.139c-1.046,1.046,0,3.139,1.584,3.139l12.048.537c1.046,0,2.093-1.584,2.093-2.63L49.72,2.121a2.043,2.043,0,0,0-3.677-.537L43.951,4.723A27.477,27.477,0,0,0,28.282,0Z" transform="translate(4361.479 5858.479)"/>
  </g>
</svg>
